<?xml version="1.0" encoding="UTF-8"?>
<!DOCTYPE svg PUBLIC "-//W3C//DTD SVG 1.1//EN" "http://www.w3.org/Graphics/SVG/1.1/DTD/svg11.dtd">
<!-- Creator: CorelDRAW -->
<svg xmlns="http://www.w3.org/2000/svg" xml:space="preserve" width="231.158mm" height="47.2713mm" version="1.1" style="shape-rendering:geometricPrecision; text-rendering:geometricPrecision; image-rendering:optimizeQuality; fill-rule:evenodd; clip-rule:evenodd"
viewBox="0 0 18139.24 3709.44"
 xmlns:xlink="http://www.w3.org/1999/xlink"
 xmlns:xodm="http://www.corel.com/coreldraw/odm/2003">
 <defs>
  <style type="text/css">
   <![CDATA[
    .fil0 {fill:#2B2B2A;fill-rule:nonzero}
    .fil2 {fill:#255BA0;fill-rule:nonzero}
    .fil1 {fill:#DF5A2C;fill-rule:nonzero}
   ]]>
  </style>
 </defs>
 <g id="Layer_x0020_1">
  <metadata id="CorelCorpID_0Corel-Layer"/>
  <g id="_105553421965440">
   <path class="fil0" d="M2525.24 839.13c0,-341.15 -282.32,-611.71 -611.71,-611.71l-1913.54 0 0 2744.83 1913.54 0c341.15,0 611.71,-282.32 611.71,-607.78l0 -1525.34zm-490.15 1466.53c0,137.24 -109.8,250.95 -247.04,250.95l-1301.84 0 0 -1909.61 1301.84 0c137.24,0 247.04,113.71 247.04,250.95l0 1407.71z"/>
   <polygon class="fil1" points="3019.31,0 3019.31,454.86 3485.94,454.86 3485.94,0 "/>
   <polygon class="fil0" points="3019.31,729.34 3019.31,2972.26 3485.94,2972.26 3485.94,729.34 "/>
   <path class="fil0" d="M5721.01 3709.44c313.7,0 556.81,-254.87 556.81,-556.81l0 -2423.29 -1780.22 0c-313.69,0 -556.8,254.88 -556.8,556.82l0 1129.3c0,313.7 254.87,556.81 556.8,556.81l1313.6 0 0 98.03c0,125.48 -98.03,223.51 -227.43,223.51l-1243.01 0 0 415.65 1380.25 0zm-1086.17 -1156.74c-129.4,0 -227.43,-98.03 -227.43,-227.43l0 -948.93c0,-129.4 98.03,-227.43 227.43,-227.43l1176.35 0 0 1403.79 -1176.35 0z"/>
   <polygon class="fil1" points="6779.73,0 6779.73,454.86 7246.35,454.86 7246.35,0 "/>
   <polygon class="fil0" points="6779.73,729.34 6779.73,2972.26 7246.35,2972.26 7246.35,729.34 "/>
   <path class="fil2" d="M9657.88 227.43l-1886.1 0 0 2744.83 486.23 0 0 -819.53 1399.86 0c337.22,0 611.7,-286.24 611.7,-607.78l0 -705.81c0,-341.15 -286.25,-611.71 -611.7,-611.71zm121.55 1258.7c0,137.25 -113.71,247.04 -247.04,247.04l-1274.38 0 0 -1086.17 1274.38 0c133.32,0 247.04,113.71 247.04,250.95l0 588.18z"/>
   <polygon class="fil2" points="10795.02,227.43 10795.02,2972.26 11281.25,2972.26 11281.25,227.43 "/>
   <path class="fil2" d="M14128.03 2556.61l-1595.92 0c-137.24,0 -247.04,-113.71 -247.04,-250.95l0 -1407.71c0,-137.24 109.8,-250.95 247.04,-250.95l1595.92 0 0 -419.57 -1721.4 0c-337.22,0 -611.71,282.33 -611.71,611.71l0 1525.34c0,337.22 282.33,607.78 611.71,607.78l1721.4 0 0 -415.65z"/>
   <polygon class="fil2" points="16519.95,227.43 15096.56,1541.03 15096.56,227.43 14606.41,227.43 14606.41,2972.26 15096.56,2972.26 15096.56,1623.37 16500.35,2972.26 17096.36,2972.26 15649.44,1580.24 17100.28,227.43 "/>
   <polygon class="fil1" points="8733.84,978.21 8733.84,1433.07 9200.46,1433.07 9200.46,978.21 "/>
   <path class="fil0" d="M17833.93 231.39l97.74 274.29 98.83 -274.29 108.75 0 0 383.03 -70.33 0 0 -309.1 -106.04 309.1 -61.32 0 -106.76 -309.1 0 309.1 -70.33 0 0 -383.03 109.47 0zm-500.98 64.02l0 -64.02 326.59 0 0 64.02 -125.15 0 0 319.02 -76.1 0 0 -319.02 -125.33 0z"/>
  </g>
 </g>
</svg>
