<?xml version="1.0" encoding="utf-8"?>
<!-- Generator: Adobe Illustrator 28.1.0, SVG Export Plug-In . SVG Version: 6.00 Build 0)  -->
<svg version="1.1" id="Layer_1" xmlns="http://www.w3.org/2000/svg" xmlns:xlink="http://www.w3.org/1999/xlink" x="0px" y="0px"
	 viewBox="0 0 435.96 134.83" style="enable-background:new 0 0 435.96 134.83;" xml:space="preserve">
<style type="text/css">
	.st0{fill-rule:evenodd;clip-rule:evenodd;fill:#255BA0;}
	.st1{fill:#255BA0;}
	.st2{fill-rule:evenodd;clip-rule:evenodd;fill:#E1633A;}
	.st3{fill-rule:evenodd;clip-rule:evenodd;fill:#586163;}
	.st4{fill:#E1633A;}
</style>
<g>
	<g>
		<path class="st0" d="M89.39,14.11c1.78,0.63,3.12,0.63,7.53,0.63c4.41,0,15.03-0.38,20.69-0.38c4.94-0.01,9.18,1,11.81,5.52
			c2.75,4.72,2.47,11.26-2.84,18.07c-5.57,7.14-11.56,11.77-25.42,14.29c-1.78,0.33-4.31,1.16-5.57,4.62
			c-1.69,4.66-4.31,12.5-4.31,12.5s-0.84,1.79-2.94,1.79h-5.46c0,0-2.2-0.11-1.15-3.05c1.05-2.94,10.92-32.06,14.6-42.61
			c0.22-0.62,0.46-1.16,1.82-1.16c1.37,0,4.31-0.15,6.3-0.15c0.93,0,1.23,0.48,0.94,1.39c-0.39,1.27-3.57,11.25-4.65,15
			c-0.63,2.2-0.11,4.2,3.88,3.46c4.61-0.85,11.35-3.26,15.45-10.4c4.1-7.15,2.1-11.26-2.84-11.35c-5.17-0.1-14.2,0.16-19.62,0.29
			c-1.57,0.04-3.49-0.81-5.91-2.7c-2.42-1.89-3.87-4.14-3.68-5.25C88.12,14.04,88.68,13.87,89.39,14.11"/>
		<path class="st0" d="M187.94,40c5.31-0.93,6.63-4.26,10.03-5.81c4.05-1.84,11.56-2.57,15.81,0.15c3.02,1.94,4.73,4.57,2.84,10.04
			c-1.89,5.46-5.09,14.76-6.73,19.49c-0.47,1.36,0,2.1,1.68,2.1c1.68,0,2.31-0.69,2.83-2.26c2.25-6.74,6.86-20.4,9.25-26.86
			c0.6-1.62,1.12-2.14,2.52-2.46c1.89-0.42,5.54-1.23,6.99-1.6c1.37-0.35,1.58,0.22,1.26,0.87c-0.13,0.29-0.08,0.79,0.66,0.5
			c0.74-0.29,3.36-1.34,6.31-1.58c2.08-0.17,5.8,0.18,7.28,2.86c2.8-1.73,6.33-3.72,12.03-3.39c6.67,0.4,7.83,6.28,6.88,8.91
			c-0.01,0.04-7.07,20.96-9.43,27.91c-0.14,0.41-0.48,0.93-1.3,0.93c-1.9,0-6.05,0.01-7.48-0.03c-0.66-0.02-1.06-0.34-0.77-1.19
			c1.36-3.99,9.09-25.98,9.39-26.97c0.91-2.94,0.18-4.13-2.8-4.28c-2.01-0.1-4.02,0.39-5.05,3.23c-2.24,6.16-8.82,24.97-9.93,28.14
			c-0.31,0.88-0.65,1.22-1.74,1.21c-2.87-0.04-5.51-0.06-6.67-0.06c-0.79,0-1.13-0.56-0.88-1.29c0.59-1.64,8.28-23.59,9.33-27.1
			c0.75-2.48,0.56-3.92-2.94-3.92c-2.83,0-4.45,1.4-5.89,5.25c-1.43,3.85-7.65,21.17-9.77,26.11c-0.47,1.1-0.9,1.53-2.62,1.53
			h-17.55c-1.26,0-1.42-0.79-1.42-1.47s0.05-1.63-1.05-0.79c-1.1,0.85-5.2,2.89-9.3,2.63c-4.1-0.27-9.2-2.37-9.25-7.46
			c-0.05-5.1,3.68-9.35,9.99-11.92c5.05-2.06,14.24-2.31,15.76-4.89c1.52-2.57,2.84-6.3,0.05-8.41c-2.79-2.1-7.57,0.1-9.72,1.52
			c-2.16,1.42-4.14,2.28-6.3,2.28c-2.26,0-3.26-0.47-3.36-1.09C186.8,40.31,187.32,40.11,187.94,40 M201.46,53.24
			c-1.82,0.49-5.75,1.18-7.99,2.66c-3.04,2-4.71,6.18-3.01,8.62c1.61,2.31,4.06,2.45,6.37,1.26c2.7-1.39,4.27-3.58,5.4-6.51
			c0.7-1.85,2.45-7.5,2.45-7.5S203.28,52.75,201.46,53.24"/>
		<path class="st0" d="M347.69,35.13c0.3-0.81,0.6-1.54,1.96-1.79c1.52-0.28,6-1.06,7.8-1.55c0.58-0.16,0.71,0.17,0.5,0.64
			c-0.53,1.15-0.76,1.73-0.03,1.43c2.33-0.91,6.26-2.52,10.9-1.81c6.6,1.01,7.82,6.28,6.88,8.91c-0.02,0.04-7.08,20.96-9.44,27.91
			c-0.14,0.41-0.47,0.93-1.29,0.93c-1.9,0-5.98-0.05-7.48-0.03c-0.67,0-1.06-0.34-0.77-1.2c1.36-3.99,9.07-25.99,9.39-26.97
			c1.15-3.54-0.92-5.47-3.9-5.27c-3.2,0.2-5.78,0.94-7.41,5.2c-2.35,6.12-8.56,23.99-9.67,27.16c-0.3,0.88-0.64,1.22-1.73,1.21
			c-2.87-0.04-18.65-0.06-19.81-0.06c-0.79,0-1.22-0.6-1.05-1.37c0.08-0.37,0.31-1.45,0.31-1.45s0.07-0.98-1.19-0.07
			c-1.26,0.91-6.87,3.36-11.7,2.52c-4.84-0.84-8.2-4.35-6.52-9.67C305.13,54.5,312,34.6,312,34.6s0.56-1.26,1.6-1.54
			c1.06-0.28,7.43-1.75,7.43-1.75s1.89-0.7,0.98,1.61c-0.91,2.31-7.07,19.99-9.39,26.83c-0.91,2.7-0.39,5.71,3.4,5.43
			c3.79-0.28,6.27-0.88,8.16-5.71c1.89-4.83,6.39-18.57,8.55-25.01c0.15-0.46,0.51-1.17,1.63-1.39c1.12-0.21,5.45-1.27,7.34-1.7
			c0.5-0.11,1.96-0.42,1.26,1.61c-0.7,2.03-10.86,30.33-10.86,30.33s-0.29,1.29,0.77,1.34c1.28,0.05,2.3,0.05,3.07,0.05
			c0.57,0,1.35-0.2,1.9-1.67C338.41,61.58,345.11,42.07,347.69,35.13"/>
		<path class="st0" d="M129.94,40c5.31-0.93,6.62-4.26,10.03-5.81c4.04-1.84,11.55-2.57,15.81,0.15c3.02,1.94,4.73,4.57,2.84,10.04
			c-1.89,5.46-5.09,14.76-6.72,19.49c-0.47,1.36,0,2.1,1.68,2.1c1.68,0,2.31-0.69,2.84-2.26c2.25-6.74,6.85-20.4,9.25-26.86
			c0.6-1.62,1.12-2.14,2.52-2.46c1.89-0.42,5.03-0.99,6.48-1.37c1.37-0.35,1.68-0.03,1.3,1.16c-0.61,1.87-0.63,2.56,0.07,1.96
			c0.7-0.6,3.31-2.66,6.52-3.33c4.17-0.88,6.24,1.19,7.81,1.31c1.97,0.15,3.93-0.51,4.1-0.05c0.26,0.7-3.05,3.57-5.74,4.27
			c-1.68,0.43-4.45,0.66-6.03,0.63c-1.58-0.03-4.42,0.11-6.55,1.97c-2.13,1.86-3.75,3.86-5.18,7.71
			c-1.44,3.85-5.17,15.31-7.28,20.26c-0.47,1.1-0.9,1.53-2.63,1.53h-17.55c-1.26,0-1.42-0.79-1.42-1.47s0.05-1.63-1.05-0.79
			c-1.1,0.85-5.2,2.89-9.3,2.63c-4.1-0.27-9.19-2.37-9.24-7.46c-0.06-5.1,3.68-9.35,9.98-11.92c5.04-2.06,14.24-2.31,15.76-4.89
			c1.52-2.57,2.83-6.3,0.05-8.41c-2.79-2.1-7.57,0.1-9.72,1.52c-2.15,1.42-4.14,2.28-6.3,2.28c-2.26,0-3.26-0.47-3.36-1.09
			C128.8,40.31,129.32,40.11,129.94,40 M143.46,53.24c-1.82,0.49-5.74,1.18-7.98,2.66c-3.04,2-4.71,6.18-3.01,8.62
			c1.61,2.31,4.06,2.45,6.37,1.26c2.7-1.39,4.27-3.58,5.39-6.51c0.71-1.85,2.45-7.5,2.45-7.5S145.28,52.75,143.46,53.24"/>
		<path class="st0" d="M292.7,31.66c4.62-0.42,11.87,0.32,12.29,8.4c0.42,8.09-4.84,18.39-9.14,23.33
			c-4.31,4.94-13.56,6.72-20.28,6.52c-6.73-0.22-9.66-6.2-7.88-14.71c1.79-8.51,4.11-12.53,7.04-15.97
			C279.79,33.29,288.08,32.08,292.7,31.66 M284.5,38.7c-9.35,11.58-9.76,24.83-5.68,26.59c4.42,1.89,8.1-0.95,11.56-6.73
			c4.37-7.28,5.99-15.34,4.73-19.12C293.86,35.66,288.92,33.24,284.5,38.7"/>
		<path class="st0" d="M392.28,38.09c-1.97,5.7-5.44,15.85-7.43,21.87c-0.39,1.17-0.82,3.76,1.12,4.77c1.74,0.9,4.12-0.1,5.4-0.62
			c0.31-0.14,1.26-0.58,1.39,0.16c0.19,1.1,0.23,1.37,0.29,1.78c0.11,0.76,0.05,1.11-1.03,1.55c-1.42,0.59-6.32,2.73-10.66,1.37
			c-4.34-1.37-5.62-4.15-5.94-5.68c-0.31-1.52,0-3.96,1.08-6.64c0.8-2,5.04-14.11,6.72-18.81c0.06-0.16,0.21-0.5-0.44-0.5
			c-0.66,0-1.42,0.03-1.89,0c-0.25-0.02-0.84-0.1-0.58-0.84c0.26-0.73,0.52-1.57,0.73-2.07c0.14-0.33,0.37-0.71,1.26-0.71
			c0.9,0,3.94-0.38,5.68-1.21c1.86-0.89,4.55-3.28,5.54-4.96c0,0,0.71-1.22,0.95-1.63c0.13-0.22,0.39-0.63,0.95-0.39
			c0.55,0.23,1.57,0.29,1,1.89c-0.58,1.6-1.66,4.25-2.21,5.7c-0.05,0.15-0.07,0.47,0.42,0.47h4.18c0.58,0,0.76,0.1,0.47,0.95
			c-0.42,1.22-0.82,2.13-0.82,2.13s-0.24,0.53-0.91,0.53c-0.87,0-2.87-0.01-4.08-0.01C392.96,37.17,392.49,37.49,392.28,38.09"/>
		<path class="st1" d="M393.92,75.35H80.56c-0.56,0-1.02-0.46-1.02-1.02c0-0.56,0.46-1.02,1.02-1.02h313.36
			c0.56,0,1.02,0.46,1.02,1.02C394.93,74.9,394.48,75.35,393.92,75.35z"/>
		<path class="st2" d="M30.75,32.08c0,0,34.25-16.6,40.34-3.57C76.73,40.55,33.27,90.5,33.27,90.5s57.79-55.06,48.75-72.08
			C74.49,4.21,30.75,32.08,30.75,32.08"/>
		<path class="st0" d="M22.77,41.64c0,0,29.43-13.83,34.67-2.98c4.83,10.03-32.5,51.63-32.5,51.63s49.65-45.85,41.89-60.03
			C60.34,18.43,22.77,41.64,22.77,41.64"/>
		<path class="st3" d="M15.62,50.3c0,0,24.2-11.37,28.5-2.45C48.1,56.09,17.4,90.29,17.4,90.29S58.22,52.6,51.84,40.94
			C46.52,31.22,15.62,50.3,15.62,50.3"/>
		<path class="st1" d="M89.05,79.02c-0.05-0.33-0.32-0.63-0.81-0.88c-0.58-0.29-1.38-0.44-2.37-0.44c-0.93,0-1.78,0.14-2.52,0.42
			c-0.75,0.28-1.32,0.64-1.77,1.12c-0.46,0.48-0.88,1.27-1.26,2.33c-0.26,0.72-0.37,1.32-0.33,1.76c0.03,0.4,0.13,0.72,0.3,0.94
			c0.2,0.24,0.68,0.68,1.49,1.31c1.13,0.88,1.44,1.25,1.57,1.47c0.25,0.43,0.19,1.08-0.18,2.12c-0.16,0.46-0.38,0.83-0.64,1.08
			c-0.31,0.29-0.66,0.44-1.06,0.44c-0.66,0-0.87-0.35-0.94-0.56c-0.09-0.28-0.02-0.67,0.22-1.38l0.42-1.19H78.3l-0.23,0.67
			c-0.38,1.06-0.56,1.87-0.53,2.4c0.02,0.44,0.27,0.81,0.78,1.12c0.57,0.34,1.38,0.52,2.4,0.52c0.96,0,1.83-0.16,2.67-0.48
			c0.81-0.31,1.41-0.69,1.81-1.14c0.41-0.46,0.79-1.2,1.14-2.19c0.6-1.67,0.56-2.47,0.41-2.85c-0.14-0.38-0.68-1.1-2.43-2.29
			c-0.64-0.43-0.97-0.82-1.04-1.21c-0.07-0.34-0.01-0.78,0.2-1.37c0.16-0.45,0.37-0.81,0.62-1.05c0.28-0.27,0.62-0.41,0.99-0.41
			c0.58,0,0.79,0.33,0.86,0.52c0.07,0.2,0.09,0.49-0.2,1.31l-0.16,0.47h2.85l0.1-0.28C89.04,79.93,89.09,79.3,89.05,79.02"/>
		<polygon class="st1" points="113.73,78.02 108.77,91.97 111.93,91.97 116.88,78.02 		"/>
		<polygon class="st1" points="146.72,78.02 143.51,87.05 143.59,78.02 140.92,78.02 135.96,91.97 138.43,91.97 141.76,82.62 
			141.42,91.97 144.24,91.97 149.19,78.02 		"/>
		<path class="st1" d="M184.6,79.55c-0.01-0.5-0.27-0.92-0.78-1.26c-0.56-0.39-1.4-0.58-2.53-0.58c-0.85,0-1.65,0.13-2.38,0.4
			c-0.76,0.27-1.37,0.63-1.9,1.08c-0.51,0.45-0.9,0.92-1.14,1.41c-0.26,0.51-0.58,1.3-0.96,2.36l-1.54,4.35
			c-0.5,1.41-0.75,2.46-0.75,3.12c0,0.57,0.24,0.98,0.74,1.31c0.57,0.36,1.42,0.55,2.53,0.55c1.09,0,2.1-0.23,3-0.68
			c0.9-0.46,1.56-0.97,1.98-1.55c0.43-0.6,0.91-1.64,1.44-3.11h-3.15l-0.55,1.56c-0.3,0.86-0.56,1.41-0.77,1.69
			c-0.26,0.34-0.64,0.51-1.1,0.51c-0.68,0-0.96-0.4-0.98-0.77c-0.01-0.2,0.02-0.56,0.4-1.61l2.46-6.91c0.3-0.84,0.53-1.33,0.73-1.6
			c0.17-0.24,0.53-0.53,1.15-0.53c0.81,0,0.94,0.53,0.96,0.69c0.02,0.21-0.01,0.55-0.39,1.62l-0.7,1.96h3.15l0.39-1.1
			C184.49,80.81,184.61,79.97,184.6,79.55"/>
		<polygon class="st1" points="209.35,78.02 204.39,91.97 210.59,91.97 211.31,89.93 208.26,89.93 209.76,85.71 212.36,85.71 
			213.03,83.82 210.43,83.82 211.77,80.06 214.55,80.06 215.27,78.02 		"/>
		<path class="st1" d="M281.8,78.02c-1.4,1.13-3.1,1.92-5.05,2.32l-0.3,0.85c1.1,0.02,1.46,0.13,1.66,0.23c0.4,0.21,0.6,0.58,0.55,1
			c-0.02,0.18-0.11,0.6-0.67,2.18l-2.62,7.35h2.99l4.95-13.94H281.8z"/>
		<path class="st1" d="M315.29,89.24c0.19-0.43,0.57-1.39,1.33-3.52l0.73-2.07c0.61-1.69,0.95-2.73,1.08-3.26
			c0.12-0.48,0.1-0.93-0.05-1.36c-0.15-0.4-0.45-0.7-0.93-0.92c-0.52-0.24-1.28-0.37-2.27-0.37c-0.81,0-1.57,0.11-2.25,0.33
			c-0.69,0.23-1.26,0.53-1.73,0.92c-0.47,0.39-0.83,0.81-1.07,1.27c-0.26,0.48-0.57,1.24-0.93,2.26l-0.42,1.19
			c-0.3,0.84-0.46,1.49-0.49,1.95c-0.02,0.37,0.11,0.67,0.43,0.94c0.34,0.29,0.82,0.44,1.43,0.44c0.52,0,0.98-0.09,1.39-0.27
			c0.4-0.17,0.74-0.42,1.04-0.77l0.32-0.37c-0.42,0.11-0.9,0.01-1.2-0.35c-0.25-0.3-0.23-0.77,0.07-1.62l0.99-2.79
			c0.3-0.82,0.58-1.28,0.92-1.5c0.96-0.6,1.68-0.28,1.83,0.35c0.08,0.31-0.01,0.78-0.29,1.56L314.25,84
			c-0.02,0.05-0.03,0.09-0.06,0.14l0.01-0.01l-1.69,4.73c-0.21,0.57-0.35,0.95-0.43,1.14c-0.12,0.27-0.3,0.48-0.54,0.65
			c-0.26,0.18-0.54,0.26-0.84,0.26c-0.48,0-0.74-0.19-0.88-0.35c-0.14-0.18-0.27-0.47-0.17-0.88c0.03-0.12,0.1-0.35,0.23-0.73h-2.98
			c-0.23,0.72-0.3,1.32-0.23,1.78c0.07,0.46,0.33,0.81,0.8,1.08c0.52,0.29,1.31,0.44,2.35,0.44c0.85,0,1.66-0.13,2.39-0.37
			c0.72-0.24,1.36-0.62,1.91-1.1C314.66,90.29,315.06,89.77,315.29,89.24"/>
		<path class="st1" d="M357.14,78.17c-0.52-0.29-1.31-0.44-2.34-0.44c-0.85,0-1.66,0.12-2.38,0.37c-0.73,0.24-1.37,0.62-1.91,1.1
			c-0.55,0.5-0.93,1-1.17,1.54c-0.26,0.56-0.68,1.68-1.33,3.52l-0.73,2.06c-0.71,2-0.98,2.88-1.08,3.27
			c-0.11,0.49-0.09,0.93,0.06,1.35c0.14,0.4,0.44,0.71,0.91,0.94c0.52,0.24,1.29,0.36,2.29,0.36c0.81,0,1.57-0.11,2.25-0.34
			c0.67-0.22,1.25-0.53,1.73-0.92c0.47-0.39,0.83-0.81,1.07-1.27c0.25-0.48,0.56-1.25,0.92-2.27l0.43-1.18
			c0.29-0.84,0.46-1.49,0.49-1.96c0.02-0.36-0.12-0.66-0.44-0.94c-0.34-0.29-0.8-0.43-1.42-0.43c-0.52,0-0.98,0.09-1.39,0.26
			c-0.41,0.17-0.75,0.43-1.04,0.77l-0.32,0.36c0.12-0.03,0.24-0.04,0.37-0.04c0.7,0,0.91,0.44,0.96,0.63
			c0.08,0.31,0.02,0.72-0.21,1.38l-0.99,2.79c-0.28,0.8-0.57,1.28-0.91,1.5c-0.33,0.21-0.61,0.31-0.87,0.31
			c-0.71,0-0.91-0.47-0.96-0.67c-0.05-0.21-0.06-0.58,0.29-1.56l0.95-2.69c0.02-0.03,0.03-0.07,0.04-0.1l-0.01,0l1.69-4.75
			c0.2-0.58,0.35-0.96,0.44-1.15c0.12-0.27,0.31-0.49,0.56-0.65c0.25-0.17,0.53-0.25,0.82-0.25c0.49,0,0.75,0.2,0.88,0.36
			c0.19,0.23,0.24,0.52,0.16,0.86c-0.03,0.13-0.11,0.37-0.24,0.72h2.99c0.22-0.71,0.3-1.3,0.23-1.77
			C357.87,78.79,357.62,78.44,357.14,78.17"/>
		<polygon class="st1" points="386.76,89.34 387.33,87.75 386.19,87.75 389.66,78.02 386.67,78.02 383.21,87.75 380.26,87.75 
			386.42,78.02 385.29,78.02 378.56,87.5 377.91,89.34 382.64,89.34 381.71,91.96 384.7,91.96 385.63,89.34 		"/>
		<path class="st1" d="M421.63,17.36c2.65,0,4.51,0.88,5.58,2.64c1.07,1.76,1.17,3.84,0.3,6.24c-0.89,2.44-2.52,4.53-4.89,6.27
			c-2.37,1.74-4.78,2.61-7.22,2.61c-2.46,0-4.23-0.87-5.33-2.6c-1.1-1.74-1.21-3.83-0.32-6.28c0.63-1.73,1.66-3.31,3.1-4.75
			c1.44-1.44,2.97-2.49,4.58-3.14C419.04,17.69,420.44,17.36,421.63,17.36 M421.43,19.09c-2.17,0-4.2,0.72-6.08,2.16
			c-1.88,1.43-3.16,3.1-3.85,5c-0.71,1.96-0.63,3.64,0.26,5.04c0.89,1.4,2.32,2.1,4.28,2.1c1.96,0,3.89-0.7,5.79-2.1
			c1.91-1.4,3.22-3.08,3.93-5.04c0.49-1.36,0.59-2.6,0.31-3.74c-0.29-1.14-0.88-1.99-1.78-2.56
			C423.41,19.38,422.45,19.09,421.43,19.09 M413,30.99l3.43-9.43h4.46c1.11,0,1.81,0.26,2.13,0.77c0.32,0.51,0.34,1.15,0.07,1.9
			c-0.26,0.72-0.69,1.31-1.27,1.75c-0.58,0.44-1.32,0.74-2.23,0.89c0.33,0.15,0.57,0.35,0.71,0.6c0.14,0.25,0.3,0.79,0.49,1.62
			l0.41,1.89h-2.35l-0.24-1.52c-0.14-0.91-0.33-1.52-0.58-1.85c-0.24-0.33-0.65-0.49-1.23-0.49h-0.5l-1.41,3.86H413z M416.84,25.63
			h1.55c0.78,0,1.37-0.1,1.77-0.31c0.41-0.2,0.69-0.54,0.86-1c0.15-0.42,0.1-0.73-0.14-0.94c-0.25-0.21-0.7-0.31-1.36-0.31h-1.75
			L416.84,25.63z"/>
		<polygon class="st4" points="75.36,116.69 73.65,116.69 75.63,111.05 73.22,104.62 75.29,104.62 77.08,109.41 82.2,104.62 
			84.34,104.62 77.35,111.05 		"/>
		<path class="st4" d="M88.22,104.62h5.17c1.73,0,2.29,0.85,1.69,2.56l-2.44,6.91c-0.61,1.73-1.78,2.59-3.51,2.59h-5.17
			c-1.72,0-2.28-0.86-1.67-2.58l2.43-6.89C85.33,105.48,86.49,104.62,88.22,104.62 M86.31,107.58l-2.2,6.24
			c-0.27,0.77-0.02,1.15,0.74,1.15h4.62c0.75,0,1.27-0.38,1.53-1.13l2.23-6.33c0.27-0.77,0.02-1.16-0.75-1.16H87.9
			C87.13,106.35,86.6,106.76,86.31,107.58"/>
		<path class="st4" d="M97.05,113.78c-0.28,0.79-0.03,1.18,0.73,1.18h4.59c0.77,0,1.29-0.37,1.55-1.11l3.25-9.22h1.8l-3.34,9.47
			c-0.66,1.72-1.86,2.58-3.58,2.58h-5.17c-1.72,0-2.28-0.86-1.67-2.58l3.34-9.48h1.72L97.05,113.78z"/>
		<path class="st4" d="M111.85,111.04l0.6-1.7h4.78c0.79,0.03,1.31-0.33,1.58-1.08l0.29-0.82c0.26-0.73,0.02-1.1-0.72-1.1h-5.78
			l-3.64,10.32h-1.72l4.25-12.04h7.75c1.71,0.02,2.26,0.88,1.66,2.59l-0.43,1.21c-0.61,1.74-1.78,2.61-3.5,2.62h-2.61l3.42,5.63
			h-2.31L111.85,111.04z"/>
		<path class="st4" d="M136.46,113.24h2.32l0.92,1.72c0.59-0.03,1-0.39,1.24-1.06l2.26-6.41c0.27-0.76,0.02-1.14-0.75-1.15h-4.56
			c-0.78,0.01-1.31,0.39-1.58,1.16l-2.22,6.3c-0.27,0.77-0.02,1.16,0.76,1.16h1.5l0.92,1.72h-3.33c-1.72,0-2.28-0.86-1.67-2.58
			l2.43-6.89c0.61-1.72,1.77-2.58,3.5-2.58h5.17c1.73,0,2.29,0.85,1.69,2.56l-2.44,6.91c-0.62,1.73-1.78,2.59-3.51,2.59h-0.65
			L136.46,113.24z"/>
		<path class="st4" d="M147.01,113.78c-0.28,0.79-0.03,1.18,0.73,1.18h4.59c0.77,0,1.29-0.37,1.55-1.11l3.25-9.22h1.81l-3.34,9.47
			c-0.66,1.72-1.86,2.58-3.58,2.58h-5.17c-1.72,0-2.28-0.86-1.67-2.58l3.35-9.48h1.72L147.01,113.78z"/>
		<polygon class="st4" points="156.37,116.68 166.5,104.66 167.81,104.66 169.42,116.68 167.5,116.68 167.18,114.11 161.79,114.11 
			163.16,112.47 166.96,112.47 166.19,107.35 158.34,116.68 		"/>
		<polygon class="st4" points="173.3,114.96 181.05,114.96 180.45,116.68 170.99,116.68 175.24,104.63 176.94,104.63 		"/>
		<polygon class="st4" points="184.41,116.68 182.7,116.68 186.95,104.63 188.66,104.63 		"/>
		<polygon class="st4" points="201.42,104.64 200.82,106.35 196.59,106.35 192.94,116.69 191.23,116.69 194.88,106.35 
			190.56,106.35 191.18,104.64 		"/>
		<polygon class="st4" points="204.58,116.69 202.87,116.69 204.85,111.05 202.44,104.62 204.51,104.62 206.29,109.41 
			211.42,104.62 213.55,104.62 206.57,111.05 		"/>
		<polygon class="st4" points="212.66,116.74 213.31,115 211.37,115 210.72,116.74 		"/>
		<path class="st4" d="M233.3,104.62h5.17c1.73,0,2.29,0.85,1.69,2.56l-2.44,6.91c-0.61,1.73-1.78,2.59-3.51,2.59h-5.17
			c-1.72,0-2.28-0.86-1.67-2.58l2.43-6.89C230.41,105.48,231.57,104.62,233.3,104.62 M231.39,107.58l-2.2,6.24
			c-0.27,0.77-0.02,1.15,0.74,1.15h4.62c0.75,0,1.27-0.38,1.53-1.13l2.23-6.33c0.27-0.77,0.02-1.16-0.75-1.16h-4.58
			C232.21,106.35,231.68,106.76,231.39,107.58"/>
		<path class="st4" d="M242.13,113.78c-0.28,0.79-0.04,1.18,0.73,1.18h4.59c0.77,0,1.29-0.37,1.55-1.11l3.25-9.22h1.8l-3.34,9.47
			c-0.66,1.72-1.85,2.58-3.58,2.58h-5.17c-1.72,0-2.28-0.86-1.67-2.58l3.34-9.48h1.72L242.13,113.78z"/>
		<path class="st4" d="M256.93,111.04l0.6-1.7h4.78c0.79,0.03,1.31-0.33,1.58-1.08l0.29-0.82c0.26-0.73,0.02-1.1-0.72-1.1h-5.78
			l-3.64,10.32h-1.71l4.25-12.04h7.75c1.71,0.02,2.26,0.88,1.66,2.59l-0.43,1.21c-0.61,1.74-1.78,2.61-3.5,2.62h-2.61l3.42,5.63
			h-2.31L256.93,111.04z"/>
		<path class="st4" d="M283.26,104.62h5.17c1.73,0,2.29,0.85,1.69,2.56l-2.44,6.91c-0.62,1.73-1.78,2.59-3.51,2.59H279
			c-1.72,0-2.28-0.86-1.67-2.58l2.43-6.89C280.37,105.48,281.53,104.62,283.26,104.62 M281.35,107.58l-2.2,6.24
			c-0.27,0.77-0.02,1.15,0.74,1.15h4.62c0.76,0,1.26-0.38,1.53-1.13l2.23-6.33c0.27-0.77,0.02-1.16-0.75-1.16h-4.58
			C282.17,106.35,281.64,106.76,281.35,107.58"/>
		<path class="st4" d="M293.59,104.62h7.75c1.58,0.11,2.14,0.98,1.68,2.58l-0.46,1.28c-0.31,0.87-0.82,1.44-1.55,1.72
			c0.56,0.2,0.69,0.72,0.39,1.56l-0.81,2.33c-0.68,1.61-1.85,2.47-3.5,2.58h-7.75L293.59,104.62z M299.1,109.34
			c0.96,0.03,1.59-0.4,1.89-1.27l0.15-0.43c0.3-0.86,0.03-1.29-0.83-1.29h-5.61l-3.04,8.62h5.6c0.86-0.01,1.44-0.44,1.74-1.27
			l0.53-1.49c0.27-0.78-0.1-1.17-1.12-1.17h-4.39l0.59-1.68H299.1z"/>
		<path class="st4" d="M302.38,116.68l0.61-1.72h7.32c0.8-0.01,1.33-0.4,1.6-1.18l0.57-1.63c0.27-0.75,0.01-1.13-0.78-1.13h-4.85
			c-1.72,0-2.28-0.87-1.66-2.62l0.43-1.2c0.6-1.72,1.77-2.58,3.5-2.58h7.66l-0.61,1.72h-7.4c-0.75,0-1.25,0.36-1.5,1.07l-0.28,0.79
			c-0.27,0.75-0.03,1.13,0.69,1.13h4.94c1.73,0,2.31,0.8,1.75,2.4l-0.83,2.35c-0.61,1.72-1.78,2.59-3.51,2.59H302.38z"/>
		<path class="st4" d="M317.52,114.96h7.71l-0.61,1.72h-9.42l4.25-12.05h9.42l-0.6,1.72h-7.71L317.52,114.96z M327.09,109.32
			l-0.6,1.7h-6.63l0.6-1.7H327.09z"/>
		<path class="st4" d="M327.36,116.68l0.61-1.72h7.32c0.8-0.01,1.33-0.4,1.6-1.18l0.57-1.63c0.27-0.75,0.01-1.13-0.78-1.13h-4.85
			c-1.72,0-2.28-0.87-1.66-2.62l0.43-1.2c0.61-1.72,1.77-2.58,3.5-2.58h7.66l-0.61,1.72h-7.4c-0.75,0-1.25,0.36-1.5,1.07l-0.28,0.79
			c-0.27,0.75-0.04,1.13,0.69,1.13h4.94c1.73,0,2.31,0.8,1.75,2.4l-0.83,2.35c-0.61,1.72-1.78,2.59-3.51,2.59H327.36z"/>
		<path class="st4" d="M340.29,116.68l0.61-1.72h7.32c0.8-0.01,1.33-0.4,1.6-1.18l0.57-1.63c0.27-0.75,0.01-1.13-0.78-1.13h-4.85
			c-1.72,0-2.28-0.87-1.66-2.62l0.43-1.2c0.6-1.72,1.77-2.58,3.5-2.58h7.66l-0.61,1.72h-7.4c-0.75,0-1.25,0.36-1.5,1.07l-0.28,0.79
			c-0.27,0.75-0.04,1.13,0.69,1.13h4.94c1.73,0,2.31,0.8,1.75,2.4l-0.83,2.35c-0.61,1.72-1.78,2.59-3.51,2.59H340.29z"/>
		<polygon class="st4" points="355.33,116.68 353.63,116.68 357.88,104.63 359.58,104.63 		"/>
		<path class="st4" d="M365.1,104.62h5.17c1.73,0,2.29,0.85,1.69,2.56l-2.44,6.91c-0.61,1.73-1.78,2.59-3.51,2.59h-5.17
			c-1.72,0-2.28-0.86-1.67-2.58l2.43-6.89C362.21,105.48,363.38,104.62,365.1,104.62 M363.2,107.58l-2.2,6.24
			c-0.27,0.77-0.02,1.15,0.74,1.15h4.62c0.75,0,1.27-0.38,1.53-1.13l2.23-6.33c0.27-0.77,0.02-1.16-0.75-1.16h-4.58
			C364.02,106.35,363.49,106.76,363.2,107.58"/>
		<polygon class="st4" points="380.81,113.85 384.06,104.62 385.78,104.62 381.52,116.68 379.79,116.68 376.18,107.54 
			372.96,116.68 371.19,116.68 375.44,104.62 377.07,104.62 		"/>
		<polygon class="st4" points="405.48,104.07 405.13,105.06 402.67,105.06 400.54,111.09 399.54,111.09 401.67,105.06 
			399.15,105.06 399.51,104.07 		"/>
		<polygon class="st4" points="407.42,111.09 406.93,106.49 405.31,111.09 404.3,111.09 406.79,104.06 407.79,104.06 408.39,109.9 
			413.09,104.02 414.09,104.02 411.6,111.08 410.6,111.08 412.22,106.49 408.52,111.09 		"/>
	</g>
</g>
</svg>
